<?xml version="1.0" encoding="UTF-8"?>
<svg width="17px" height="13px" viewBox="0 0 17 13" version="1.1" xmlns="http://www.w3.org/2000/svg" xmlns:xlink="http://www.w3.org/1999/xlink">
    <title>camera-icon</title>
    <g id="Symbols" stroke="none" stroke-width="1" fill="none" fill-rule="evenodd">
        <g id="camera-icon" fill="#FFFFFF" fill-rule="nonzero">
            <g id="iconfinder_icon-camera_211634">
                <path d="M15.6269231,2.071875 L12.8685096,2.071875 L11.2175481,0.414375 C11.2175481,0.414375 11.209375,0.40625 11.2052885,0.40625 L11.1971154,0.398125 L11.1971154,0.398125 C10.9519231,0.154375 10.6209135,0 10.2449519,0 L6.81225962,0 C6.41177885,0 6.05625,0.170625 5.80697115,0.4428125 L5.80697115,0.446875 L4.19278846,2.071875 L1.37307692,2.071875 C0.612980769,2.071875 0,2.665 0,3.420625 L0,11.6309375 C0,12.3865625 0.612980769,13 1.37307692,13 L15.6269231,13 C16.3829327,13 17,12.3865625 17,11.6309375 L17,3.420625 C17,2.665 16.3829327,2.071875 15.6269231,2.071875 Z M8.5,10.9484375 C6.41995192,10.9484375 4.72403846,9.2584375 4.72403846,7.1865625 C4.72403846,5.110625 6.41995192,3.4246875 8.5,3.4246875 C10.5841346,3.4246875 12.2759615,5.110625 12.2759615,7.1865625 C12.2759615,9.2584375 10.5841346,10.9484375 8.5,10.9484375 Z M15.3694712,4.2453125 C15.0548077,4.2453125 14.7973558,3.989375 14.7973558,3.6725 C14.7973558,3.355625 15.0548077,3.0996875 15.3694712,3.0996875 C15.6841346,3.0996875 15.9415865,3.355625 15.9415865,3.6725 C15.9415865,3.989375 15.6841346,4.2453125 15.3694712,4.2453125 Z" id="Shape"></path>
                <path d="M8.5,4.5 C6.97922636,4.5 5.75,5.72964286 5.75,7.25 C5.75,8.76642857 6.97922636,10 8.5,10 C10.0168338,10 11.25,8.77035714 11.25,7.25 C11.25,5.72964286 10.0168338,4.5 8.5,4.5 Z" id="Path"></path>
            </g>
        </g>
    </g>
</svg>